# xmcd
#
# Track frame offsets: 
#        182
#        16637
#        26737
#        44035
#        58690
#        72260
#        87630
#        99692
#        114690
#        127467
#
# Disc length: 1885 seconds
#
# Revision: 0
# Processed by: cddbd v1.4PL0 Copyright (c) Steve Scherf et al.
# Submitted via: ExactAudioCopy v0.90b4
#
DISCID=95075b0a
DTITLE=Burrito Brothers - Best Of The Burrito Brothers
DYEAR=1900
DGENRE=Country
TTITLE0=She Belongs To Everyone But Me
TTITLE1=Does She Wish She Was Single Again
TTITLE2=If Something Should Come Between Us (Let It Be Love)
TTITLE3=I'm Drinkin' Canada Dry
TTITLE4=Closer To You
TTITLE5=Blue And Broken Hearted Me
TTITLE6=Almost Saturday Night
TTITLE7=Our Roots Are Country Music
TTITLE8=She's A Friend Of A Friend
TTITLE9=Oh Lonesome Me
EXTD=
EXTT0=
EXTT1=
EXTT2=
EXTT3=
EXTT4=
EXTT5=
EXTT6=
EXTT7=
EXTT8=
EXTT9=
PLAYORDER=
